<mxfile host="Electron" agent="Mozilla/5.0 (Windows NT 10.0; Win64; x64) AppleWebKit/537.36 (KHTML, like Gecko) draw.io/27.0.9 Chrome/134.0.6998.205 Electron/35.4.0 Safari/537.36" version="27.0.9">
  <diagram name="Página-1" id="IZqAts2g6bXaED-vM-Xr">
    <mxGraphModel dx="1042" dy="660" grid="1" gridSize="10" guides="1" tooltips="1" connect="1" arrows="1" fold="1" page="1" pageScale="1" pageWidth="827" pageHeight="583" math="0" shadow="0">
      <root>
        <mxCell id="0" />
        <mxCell id="1" parent="0" />
        <mxCell id="VMltcIXAbGf6lN5rMRbk-81" value="" style="edgeStyle=orthogonalEdgeStyle;rounded=0;orthogonalLoop=1;jettySize=auto;html=1;" parent="1" source="VMltcIXAbGf6lN5rMRbk-49" target="VMltcIXAbGf6lN5rMRbk-52" edge="1">
          <mxGeometry relative="1" as="geometry" />
        </mxCell>
        <mxCell id="VMltcIXAbGf6lN5rMRbk-49" value="&quot;Bem Vindo ao Cardume.:&lt;div&gt;&lt;span style=&quot;background-color: transparent; color: light-dark(rgb(0, 0, 0), rgb(255, 255, 255));&quot;&gt;&lt;br&gt;&lt;/span&gt;&lt;/div&gt;&lt;div&gt;&lt;span style=&quot;background-color: transparent; color: light-dark(rgb(0, 0, 0), rgb(255, 255, 255));&quot;&gt;Botão 1: Se não possui uma conta, realize o cadastro cadastro no Cardume&lt;/span&gt;&lt;/div&gt;&lt;div&gt;&lt;span style=&quot;background-color: transparent; color: light-dark(rgb(0, 0, 0), rgb(255, 255, 255));&quot;&gt;&lt;br&gt;&lt;/span&gt;&lt;/div&gt;&lt;div&gt;&lt;span style=&quot;background-color: transparent; color: light-dark(rgb(0, 0, 0), rgb(255, 255, 255));&quot;&gt;Botão 2: Se já possui cadastro, efetue o login&lt;/span&gt;&lt;/div&gt;&lt;div&gt;&lt;span style=&quot;background-color: transparent; color: light-dark(rgb(0, 0, 0), rgb(255, 255, 255));&quot;&gt;&lt;br&gt;&lt;/span&gt;&lt;/div&gt;&lt;div&gt;&lt;span style=&quot;background-color: transparent; color: light-dark(rgb(0, 0, 0), rgb(255, 255, 255));&quot;&gt;Botão 3: Fechar Cardume&quot;&lt;/span&gt;&lt;/div&gt;" style="shape=document;whiteSpace=wrap;html=1;boundedLbl=1;" parent="1" vertex="1">
          <mxGeometry x="250" y="30" width="230" height="210" as="geometry" />
        </mxCell>
        <mxCell id="VMltcIXAbGf6lN5rMRbk-51" value="" style="group" parent="1" vertex="1" connectable="0">
          <mxGeometry x="529" y="80" width="104" height="60" as="geometry" />
        </mxCell>
        <mxCell id="VMltcIXAbGf6lN5rMRbk-52" value="" style="verticalLabelPosition=bottom;verticalAlign=top;html=1;shape=card;whiteSpace=wrap;size=20;arcSize=12;" parent="VMltcIXAbGf6lN5rMRbk-51" vertex="1">
          <mxGeometry width="104" height="60" as="geometry" />
        </mxCell>
        <mxCell id="VMltcIXAbGf6lN5rMRbk-53" value="Botão pressionado" style="text;html=1;align=center;verticalAlign=middle;whiteSpace=wrap;rounded=0;" parent="VMltcIXAbGf6lN5rMRbk-51" vertex="1">
          <mxGeometry x="22" y="15" width="60" height="30" as="geometry" />
        </mxCell>
        <mxCell id="VMltcIXAbGf6lN5rMRbk-62" value="" style="edgeStyle=orthogonalEdgeStyle;rounded=0;orthogonalLoop=1;jettySize=auto;html=1;" parent="1" source="VMltcIXAbGf6lN5rMRbk-61" target="VMltcIXAbGf6lN5rMRbk-49" edge="1">
          <mxGeometry relative="1" as="geometry">
            <Array as="points">
              <mxPoint x="219" y="200" />
              <mxPoint x="219" y="155" />
            </Array>
          </mxGeometry>
        </mxCell>
        <mxCell id="VMltcIXAbGf6lN5rMRbk-61" value="Início" style="ellipse;whiteSpace=wrap;html=1;" parent="1" vertex="1">
          <mxGeometry x="70" y="170" width="90" height="60" as="geometry" />
        </mxCell>
        <mxCell id="VMltcIXAbGf6lN5rMRbk-99" value="" style="edgeStyle=orthogonalEdgeStyle;rounded=0;orthogonalLoop=1;jettySize=auto;html=1;entryX=0.5;entryY=0;entryDx=0;entryDy=0;" parent="1" source="VMltcIXAbGf6lN5rMRbk-52" target="t99EoDB1tFMH6DGjAn4k-9" edge="1">
          <mxGeometry relative="1" as="geometry">
            <mxPoint x="581" y="190" as="targetPoint" />
          </mxGeometry>
        </mxCell>
        <mxCell id="t99EoDB1tFMH6DGjAn4k-3" style="edgeStyle=orthogonalEdgeStyle;rounded=0;orthogonalLoop=1;jettySize=auto;html=1;exitX=1;exitY=0.5;exitDx=0;exitDy=0;entryX=0;entryY=0.5;entryDx=0;entryDy=0;" parent="1" source="t99EoDB1tFMH6DGjAn4k-2" target="VMltcIXAbGf6lN5rMRbk-49" edge="1">
          <mxGeometry relative="1" as="geometry" />
        </mxCell>
        <mxCell id="t99EoDB1tFMH6DGjAn4k-2" value="Menu de Cadastro" style="ellipse;whiteSpace=wrap;html=1;" parent="1" vertex="1">
          <mxGeometry x="124" y="60" width="60" height="60" as="geometry" />
        </mxCell>
        <mxCell id="t99EoDB1tFMH6DGjAn4k-4" value="" style="edgeStyle=orthogonalEdgeStyle;rounded=0;orthogonalLoop=1;jettySize=auto;html=1;" parent="1" source="t99EoDB1tFMH6DGjAn4k-5" target="t99EoDB1tFMH6DGjAn4k-6" edge="1">
          <mxGeometry relative="1" as="geometry" />
        </mxCell>
        <mxCell id="_VT8lF1Wbu34ZfXfCVtx-2" style="edgeStyle=orthogonalEdgeStyle;rounded=0;orthogonalLoop=1;jettySize=auto;html=1;exitX=0;exitY=0.5;exitDx=0;exitDy=0;entryX=1;entryY=0.5;entryDx=0;entryDy=0;" edge="1" parent="1" source="t99EoDB1tFMH6DGjAn4k-5" target="t99EoDB1tFMH6DGjAn4k-14">
          <mxGeometry relative="1" as="geometry" />
        </mxCell>
        <mxCell id="t99EoDB1tFMH6DGjAn4k-5" value="Botão pressionado igual a 2?" style="rhombus;whiteSpace=wrap;html=1;verticalAlign=top;arcSize=12;" parent="1" vertex="1">
          <mxGeometry x="452" y="290" width="80" height="80" as="geometry" />
        </mxCell>
        <mxCell id="t99EoDB1tFMH6DGjAn4k-6" value="&lt;div&gt;&lt;br&gt;&lt;/div&gt;Login" style="ellipse;whiteSpace=wrap;html=1;verticalAlign=top;arcSize=12;" parent="1" vertex="1">
          <mxGeometry x="570.5" y="300" width="59.5" height="60" as="geometry" />
        </mxCell>
        <mxCell id="t99EoDB1tFMH6DGjAn4k-7" value="V" style="text;html=1;align=center;verticalAlign=middle;resizable=0;points=[];autosize=1;strokeColor=none;fillColor=none;" parent="1" vertex="1">
          <mxGeometry x="530" y="300" width="30" height="30" as="geometry" />
        </mxCell>
        <mxCell id="t99EoDB1tFMH6DGjAn4k-8" value="" style="edgeStyle=orthogonalEdgeStyle;rounded=0;orthogonalLoop=1;jettySize=auto;html=1;entryX=0;entryY=0.5;entryDx=0;entryDy=0;" parent="1" source="t99EoDB1tFMH6DGjAn4k-9" target="lYLzT3UShJgjrUPcvMOM-1" edge="1">
          <mxGeometry relative="1" as="geometry">
            <mxPoint x="699" y="230" as="targetPoint" />
          </mxGeometry>
        </mxCell>
        <mxCell id="t99EoDB1tFMH6DGjAn4k-21" style="edgeStyle=orthogonalEdgeStyle;rounded=0;orthogonalLoop=1;jettySize=auto;html=1;exitX=0;exitY=0.5;exitDx=0;exitDy=0;entryX=0.5;entryY=0;entryDx=0;entryDy=0;" parent="1" source="t99EoDB1tFMH6DGjAn4k-9" target="t99EoDB1tFMH6DGjAn4k-5" edge="1">
          <mxGeometry relative="1" as="geometry" />
        </mxCell>
        <mxCell id="t99EoDB1tFMH6DGjAn4k-9" value="&lt;div&gt;Botão pressionado igual a 1?&lt;/div&gt;" style="rhombus;whiteSpace=wrap;html=1;verticalAlign=top;arcSize=12;" parent="1" vertex="1">
          <mxGeometry x="541" y="190" width="80" height="80" as="geometry" />
        </mxCell>
        <mxCell id="t99EoDB1tFMH6DGjAn4k-11" value="V" style="text;html=1;align=center;verticalAlign=middle;resizable=0;points=[];autosize=1;strokeColor=none;fillColor=none;" parent="1" vertex="1">
          <mxGeometry x="619" y="200" width="30" height="30" as="geometry" />
        </mxCell>
        <mxCell id="t99EoDB1tFMH6DGjAn4k-14" value="&lt;div&gt;&lt;span style=&quot;background-color: transparent; color: light-dark(rgb(0, 0, 0), rgb(255, 255, 255));&quot;&gt;Fim&lt;/span&gt;&lt;/div&gt;" style="ellipse;whiteSpace=wrap;html=1;verticalAlign=top;arcSize=12;" parent="1" vertex="1">
          <mxGeometry x="354" y="315" width="59.5" height="30" as="geometry" />
        </mxCell>
        <mxCell id="t99EoDB1tFMH6DGjAn4k-22" value="F" style="text;html=1;align=center;verticalAlign=middle;resizable=0;points=[];autosize=1;strokeColor=none;fillColor=none;" parent="1" vertex="1">
          <mxGeometry x="514" y="200" width="30" height="30" as="geometry" />
        </mxCell>
        <mxCell id="t99EoDB1tFMH6DGjAn4k-23" value="F" style="text;html=1;align=center;verticalAlign=middle;resizable=0;points=[];autosize=1;strokeColor=none;fillColor=none;" parent="1" vertex="1">
          <mxGeometry x="422" y="300" width="30" height="30" as="geometry" />
        </mxCell>
        <mxCell id="lYLzT3UShJgjrUPcvMOM-1" value="&lt;div&gt;&lt;br&gt;&lt;/div&gt;&lt;div&gt;Cadastro&lt;/div&gt;" style="ellipse;whiteSpace=wrap;html=1;verticalAlign=top;arcSize=12;" parent="1" vertex="1">
          <mxGeometry x="659" y="200" width="59.5" height="60" as="geometry" />
        </mxCell>
      </root>
    </mxGraphModel>
  </diagram>
</mxfile>
